<svg width="20" height="20" viewBox="0 0 20 20" fill="none" xmlns="http://www.w3.org/2000/svg">
<path d="M19.517 10C19.433 9.99956 19.3528 9.96578 19.2941 9.90628L9.93414 0.532984C9.81163 0.410283 9.8125 0.212389 9.93568 0.0907761C10.0589 -0.0308369 10.2579 -0.0301841 10.3802 0.0923017L19.753 9.46839C19.8413 9.55818 19.8672 9.69178 19.8185 9.80773C19.7699 9.92345 19.6561 9.99908 19.5299 9.99973L19.517 10Z" fill="#1DAC68"/>
<path d="M19.0341 10.2002H0.65124C0.480973 10.2002 0.342773 9.97635 0.342773 9.7002C0.342773 9.42404 0.480968 9.2002 0.65124 9.2002H19.0341C19.2046 9.2002 19.3428 9.42404 19.3428 9.7002C19.3428 9.97635 19.2046 10.2002 19.0341 10.2002Z" fill="#1DAC68"/>
<path d="M10.1557 19.4998C10.0294 19.4992 9.91586 19.4235 9.86719 19.3078C9.8183 19.1919 9.84417 19.0583 9.93275 18.9686L19.2955 9.59725C19.417 9.47131 19.6182 9.46717 19.7449 9.58788C19.8716 9.70882 19.8758 9.90884 19.7544 10.0348L10.3916 19.4061C10.3298 19.4689 10.2441 19.5029 10.1557 19.4998L10.1557 19.4998Z" fill="#1DAC68"/>
</svg>
