<svg width="47" height="47" viewBox="0 0 47 47" fill="none" xmlns="http://www.w3.org/2000/svg">
<path d="M46.9731 23.2798L46.8761 23.3041C46.8771 23.3081 46.8782 23.3116 46.8788 23.3138L46.8805 23.3189C46.8806 23.3192 46.8807 23.3195 46.8807 23.3197L46.8813 23.3221C46.8878 23.3493 46.8925 23.3772 46.8961 23.4063V23.4063V23.4063V23.4064V23.4064V23.4064V23.4064V23.4065V23.4065V23.4065V23.4065V23.4065V23.4065V23.4066V23.4066V23.4066V23.4066V23.4066V23.4066V23.4067V23.4067V23.4067V23.4067V23.4067V23.4067V23.4068V23.4068V23.4068V23.4068V23.4068V23.4068V23.4068V23.4069V23.4069V23.4069V23.4069V23.4069V23.4069V23.407V23.407H46.8957L46.8966 23.4167C46.9156 23.61 46.8551 23.8053 46.7091 23.95L46.7089 23.9502C46.7078 23.9513 46.7058 23.953 46.6999 23.9575L46.6978 23.9591C46.6926 23.9631 46.6836 23.9699 46.6752 23.9773L46.6751 23.9772L46.6707 23.9816L24.1277 46.6609L24.1275 46.6607L24.1221 46.6671C24.0048 46.8065 23.8333 46.8911 23.65 46.8993C23.4664 46.9076 23.2878 46.8394 23.1576 46.7104L23.1572 46.7101C23.0271 46.5825 22.9565 46.4054 22.9624 46.2221L22.9624 46.2214C22.9671 46.0388 23.0492 45.8665 23.1878 45.7468L23.1879 45.747L23.1933 45.7416L44.4976 24.3079L44.6671 24.1374H44.4267L0.758118 24.1374C0.394939 24.1374 0.100002 23.8426 0.100002 23.48C0.100002 23.1174 0.394936 22.8226 0.758118 22.8226L44.4186 22.8226H44.6589L44.4895 22.6521L23.1951 1.22557C23.195 1.22549 23.1949 1.2254 23.1948 1.22531C23.0093 1.03622 22.9555 0.754681 23.0575 0.512142L23.0578 0.511604C23.1587 0.267632 23.3971 0.108116 23.6612 0.108116H23.7603C23.8996 0.130039 24.0288 0.195652 24.1287 0.297287L24.1291 0.297707L46.7119 23.0182C46.712 23.0184 46.7121 23.0185 46.7123 23.0187L46.7155 23.0231L46.7218 23.0313L46.7217 23.0314L46.7249 23.035C46.7438 23.0563 46.7605 23.0767 46.7757 23.0977L46.7759 23.098C46.7825 23.1071 46.7874 23.1135 46.7913 23.1187C46.7964 23.1252 46.7999 23.1299 46.8038 23.1359C46.8085 23.1441 46.8125 23.1522 46.8177 23.1628C46.82 23.1675 46.8225 23.1727 46.8255 23.1785L46.8255 23.1785L46.826 23.1795C46.848 23.2223 46.8653 23.2643 46.8766 23.306L46.9731 23.2798ZM46.9731 23.2798C46.9596 23.2298 46.9393 23.1811 46.9149 23.1338C46.9129 23.1298 46.9109 23.1257 46.9089 23.1215C46.9027 23.1089 46.8963 23.0959 46.8892 23.0837L46.7795 24.021C46.9488 23.8533 47.0178 23.6274 46.9961 23.407V23.4002C46.9921 23.3664 46.9867 23.3326 46.9785 23.2988C46.9777 23.2948 46.9764 23.2907 46.9753 23.287C46.9744 23.2844 46.9737 23.282 46.9731 23.2798ZM46.7129 23.0192C46.7128 23.0191 46.7127 23.0191 46.7127 23.019L46.7129 23.0192Z" fill="black" stroke="#FAFAFA" stroke-width="0.2"/>
</svg>
