<svg width="51" height="51" viewBox="0 0 51 51" fill="none" xmlns="http://www.w3.org/2000/svg">
<rect x="1" y="1.04785" width="49" height="49" rx="24.5" stroke="#DADBDB"/>
<g clip-path="url(#clip0_1271_14205)">
<path d="M30.7303 24.1491H26.0487V19.0426C26.0487 17.776 26.3556 16.7512 26.962 15.999C27.3773 15.5004 27.9249 15.1382 28.5374 14.9569C29.1013 14.7906 29.6864 14.7136 30.2728 14.7286H31.147V13.6251C30.5462 13.5925 29.8543 13.5771 29.0749 13.5771C27.6074 13.5771 26.4895 13.9878 25.66 14.8303C25.2585 15.2406 24.9543 15.741 24.7709 16.2926C24.5356 17.0163 24.423 17.7765 24.438 18.5398V24.1491H20.147V25.6364H24.438V38.8124H26.0487V25.6364H30.5388L30.7303 24.1491Z" fill="black"/>
</g>
<defs>
<clipPath id="clip0_1271_14205">
<rect width="12" height="26" fill="white" transform="translate(19.5 13.5479)"/>
</clipPath>
</defs>
</svg>
