<svg width="51" height="51" viewBox="0 0 51 51" fill="none" xmlns="http://www.w3.org/2000/svg">
<rect x="1" y="1.04785" width="49" height="49" rx="24.5" stroke="#DADBDB"/>
<path d="M30.9649 15.2537H20.7702C17.6971 15.2537 15.2058 17.7449 15.2058 20.8181V31.0128C15.2058 34.0859 17.6971 36.5772 20.7702 36.5772H30.9649C34.0381 36.5772 36.5293 34.0859 36.5293 31.0128V20.8181C36.5293 17.7449 34.0381 15.2537 30.9649 15.2537Z" stroke="black" stroke-width="1.2" stroke-linecap="round" stroke-linejoin="round"/>
<path d="M25.8677 31.5C28.9521 31.5 31.4524 28.9997 31.4524 25.9153C31.4524 22.8309 28.9521 20.3306 25.8677 20.3306C22.7833 20.3306 20.283 22.8309 20.283 25.9153C20.283 28.9997 22.7833 31.5 25.8677 31.5Z" stroke="black" stroke-width="1.2" stroke-linecap="round" stroke-linejoin="round"/>
<path d="M31.9599 19.3152C32.2402 19.3152 32.4676 19.0879 32.4676 18.8075C32.4676 18.5271 32.2402 18.2998 31.9599 18.2998C31.6795 18.2998 31.4521 18.5271 31.4521 18.8075C31.4521 19.0879 31.6795 19.3152 31.9599 19.3152Z" stroke="black" stroke-width="1.2" stroke-linecap="round" stroke-linejoin="round"/>
</svg>
