<svg width="37" height="26" viewBox="0 0 37 26" fill="none" xmlns="http://www.w3.org/2000/svg">
<path d="M35.7554 26H0.589199C0.265398 26 0.00292969 25.7375 0.00292969 25.4141V0.586351C0.00292969 0.262968 0.265398 0.000488281 0.589199 0.000488281H35.7554C35.9107 0.000488281 36.06 0.0622211 36.1699 0.172195C36.2799 0.281765 36.3416 0.430991 36.3416 0.58634V25.4141C36.3416 25.5694 36.2799 25.7187 36.1699 25.8282C36.06 25.9382 35.9107 25.9999 35.7554 25.9999V26ZM1.1753 24.8279H35.1693V1.17232H1.1753V24.8279Z" fill="black"/>
<path d="M18.1713 14.102C18.047 14.1024 17.926 14.0635 17.8254 13.9908L0.242336 1.06092C0.0362789 0.911697 -0.0499821 0.64637 0.028922 0.404341C0.107826 0.162311 0.333915 -0.000813297 0.58821 3.06028e-06H35.7544C36.0087 -0.000814658 36.2348 0.162311 36.3137 0.404341C36.3926 0.64637 36.3063 0.911708 36.1003 1.06092L18.5172 13.9908C18.4166 14.0635 18.2956 14.1024 18.1713 14.102ZM2.34652 1.17213L18.1713 12.7885L33.9961 1.17213H2.34652Z" fill="black"/>
</svg>
