<svg width="27" height="28" viewBox="0 0 27 28" fill="none" xmlns="http://www.w3.org/2000/svg">
<path d="M24.5576 8.35414C23.4383 6.34701 21.7771 4.66398 19.7781 3.53106C17.8364 2.43082 15.606 1.85346 13.3755 1.88344C11.0771 1.91339 8.80306 2.58878 6.85843 3.81701C4.9276 5.03433 3.34257 6.77727 2.32678 8.82274C1.33818 10.8108 0.877946 13.0548 1.02774 15.2716C1.18297 17.5919 1.9891 19.8496 3.34257 21.7424C4.66337 23.5889 6.47712 25.0649 8.56343 25.9609C10.606 26.8378 12.869 27.181 15.0805 26.9086C17.4853 26.609 19.762 25.6205 21.6245 24.0682C23.5254 22.4859 24.9252 20.329 25.6197 17.9569C25.7858 17.385 25.9111 16.8022 25.9955 16.214C26.0173 16.0696 25.9601 15.9226 25.8049 15.879C25.6769 15.8436 25.4917 15.9226 25.4699 16.0696C25.135 18.4226 24.1219 20.6612 22.5342 22.4368C20.9601 24.1961 18.8767 25.4707 16.5947 26.0698C14.5086 26.6172 12.2973 26.5818 10.2275 25.9854C8.16864 25.3835 6.28681 24.237 4.81641 22.6765C3.27774 21.0452 2.21833 18.9837 1.77717 16.7859C1.35504 14.6916 1.51845 12.502 2.21562 10.4869C2.92371 8.44164 4.19003 6.61155 5.84857 5.21969C7.55336 3.78993 9.6558 2.85855 11.8562 2.53994C13.975 2.2322 16.1646 2.52632 18.1443 3.33517C20.1269 4.14399 21.8943 5.50568 23.1769 7.22138C23.5119 7.66801 23.8142 8.13917 24.0865 8.62664C24.2581 8.93438 24.7292 8.65932 24.5577 8.3543L24.5576 8.35414Z" fill="black" stroke="black" stroke-width="0.5"/>
<path d="M17.3026 8.75744C18.0923 8.75744 18.8848 8.76017 19.6746 8.76017C20.9355 8.76017 22.1964 8.76289 23.4573 8.76289H24.3261C24.4731 8.76289 24.5984 8.63762 24.5984 8.49055C24.5984 7.7008 24.5984 6.90831 24.6011 6.11851C24.6011 4.85761 24.6039 3.59941 24.6039 2.33851V1.47247C24.6039 1.12116 24.0592 1.12116 24.0592 1.47247C24.0592 2.26222 24.0592 3.05471 24.0564 3.84451C24.0564 5.10541 24.0537 6.36362 24.0537 7.62451V8.49055C24.1436 8.40068 24.2362 8.30809 24.3261 8.21822C23.5363 8.21822 22.7438 8.21549 21.954 8.21549C20.6931 8.21549 19.4322 8.21277 18.1713 8.21277H17.3025C16.9512 8.21277 16.9512 8.75746 17.3025 8.75746L17.3026 8.75744Z" fill="black" stroke="black" stroke-width="0.5"/>
</svg>
