<svg width="29" height="29" viewBox="0 0 29 29" fill="none" xmlns="http://www.w3.org/2000/svg">
<path d="M12.5909 0.923195C15.5523 0.92416 18.3921 2.1016 20.4856 4.19638C22.5792 6.29123 23.755 9.1316 23.7547 12.093C23.7544 15.0544 22.5776 17.8945 20.4834 19.9887C18.3896 22.0829 15.5494 23.2593 12.5877 23.26C9.62634 23.2603 6.78588 22.0844 4.69111 19.9909C2.59659 17.8974 1.41917 15.0576 1.41793 12.0959C1.4205 9.1335 2.59823 6.29313 4.69309 4.19827C6.78794 2.10342 9.62831 0.925419 12.591 0.923112M12.591 0.000568783V0.000246996C9.38439 0.000246996 6.30941 1.27421 4.04189 3.54115C1.77462 5.80843 0.50033 8.88349 0.5 12.0894C0.499678 15.2961 1.77298 18.3714 4.03967 20.6394C6.30669 22.9073 9.38167 24.1816 12.588 24.1826C15.7946 24.1833 18.8699 22.9106 21.1379 20.6439C23.4058 18.3772 24.6808 15.3026 24.6818 12.0956C24.6831 8.88835 23.4098 5.8118 21.1421 3.54321C18.8745 1.27462 15.7985 0 12.5913 0L12.591 0.000568783Z" fill="black"/>
<path d="M28.0309 28.141C27.9083 28.1417 27.7905 28.0937 27.7036 28.0071L20.6501 20.9539C20.4933 20.7708 20.5036 20.4979 20.6742 20.3274C20.8447 20.1572 21.1173 20.1466 21.3004 20.3033L28.3678 27.3568C28.4987 27.4904 28.5361 27.6899 28.4624 27.8617C28.3884 28.0339 28.2182 28.1439 28.0309 28.141L28.0309 28.141Z" fill="black"/>
</svg>
