<svg width="51" height="51" viewBox="0 0 51 51" fill="none" xmlns="http://www.w3.org/2000/svg">
<rect x="1" y="1.04785" width="49" height="49" rx="24.5" stroke="#DADBDB"/>
<path d="M32.3803 26.7454L34.6807 24.9492C34.8502 24.8156 34.9744 24.633 35.0365 24.4262C35.0985 24.2195 35.0953 23.9986 35.0274 23.7938V23.7938C34.9478 23.5529 34.7838 23.349 34.5657 23.2196C34.3475 23.0903 34.0899 23.0442 33.8404 23.09L32.2227 23.4471C32.1384 23.4625 32.0516 23.457 31.9699 23.4311C31.8882 23.4052 31.814 23.3598 31.754 23.2986C31.6939 23.2375 31.6497 23.1626 31.6252 23.0805C31.6007 22.9983 31.5967 22.9114 31.6135 22.8274C32.4118 17.9114 29.8488 14.5186 25.8152 14.5186C21.7816 14.5186 19.208 17.9114 20.0169 22.7854C20.0422 22.8722 20.0447 22.9642 20.0241 23.0523C20.0034 23.1404 19.9604 23.2217 19.8991 23.2883C19.8378 23.3548 19.7603 23.4045 19.6742 23.4323C19.5881 23.4601 19.4963 23.4652 19.4076 23.4471L17.79 23.1005C17.5403 23.0514 17.2812 23.0946 17.061 23.2221C16.8407 23.3496 16.6742 23.5528 16.5925 23.7938C16.5246 23.9986 16.5214 24.2195 16.5834 24.4262C16.6454 24.633 16.7696 24.8156 16.9391 24.9492L19.2501 26.7454C19.3432 26.8176 19.4094 26.919 19.438 27.0333C19.4666 27.1476 19.4559 27.2682 19.4076 27.3757C18.8594 28.5 18.0647 29.4862 17.0826 30.261C16.1005 31.0357 14.9564 31.579 13.7354 31.8505C13.8719 33.6257 16.8866 32.2496 17.4118 32.9009C17.7402 33.3619 17.9231 33.9107 17.937 34.4765H20.0379C21.6135 34.4765 23.5148 36.5774 25.8152 36.5774C28.1156 36.5774 30.0169 34.4765 31.5925 34.4765H33.6933C33.7073 33.9107 33.8902 33.3619 34.2185 32.9009C34.7438 32.2496 37.769 33.6257 37.895 31.8505C36.6721 31.5805 35.5258 31.0378 34.5419 30.263C33.5579 29.4882 32.7616 28.5012 32.2122 27.3757C32.1651 27.2671 32.1561 27.1457 32.1866 27.0313C32.2171 26.9169 32.2854 26.8162 32.3803 26.7454V26.7454Z" stroke="black" stroke-width="1.2" stroke-linecap="round" stroke-linejoin="round"/>
</svg>
