<svg width="22" height="22" viewBox="0 0 22 22" fill="none" xmlns="http://www.w3.org/2000/svg">
<path d="M9.12512 3.91625C10.5249 3.54087 12.0046 3.58943 13.3767 4.05579C14.7489 4.52215 15.9517 5.38531 16.8328 6.53591C17.7139 7.68651 18.2337 9.07276 18.3262 10.519C18.4188 11.9653 18.0799 13.4065 17.3526 14.66C16.8805 15.4895 16.2465 16.2157 15.4883 16.7955C14.7301 17.3752 13.8631 17.7968 12.9389 18.035C12.306 18.2087 11.6527 18.2969 10.9964 18.2975C9.71158 18.2961 8.45007 17.9546 7.34012 17.3075C6.51128 16.8336 5.78568 16.1986 5.20605 15.4399C4.62642 14.6813 4.20449 13.8143 3.96512 12.89C3.71373 11.962 3.64783 10.9934 3.77119 10.0399C3.89455 9.08636 4.20475 8.1665 4.68403 7.33298C5.16331 6.49947 5.80227 5.76865 6.56433 5.18236C7.32639 4.59608 8.19658 4.16583 9.12512 3.91625ZM4.70387 12.68C4.91512 13.507 5.28927 14.2836 5.80441 14.9642C6.31954 15.6448 6.9653 16.2158 7.70387 16.6438C8.45651 17.0816 9.28897 17.3649 10.1525 17.4769C11.016 17.589 11.8932 17.5275 12.7326 17.2963C13.5596 17.085 14.3362 16.7108 15.0168 16.1957C15.6975 15.6806 16.2684 15.0348 16.6964 14.2963C17.2765 13.2983 17.5839 12.1654 17.5879 11.0111C17.5918 9.85683 17.2921 8.72182 16.7188 7.71997C16.1455 6.71812 15.3188 5.88467 14.3216 5.30326C13.3244 4.72185 12.1919 4.41293 11.0376 4.4075C10.4585 4.40758 9.88206 4.48579 9.32387 4.64C7.64643 5.09571 6.21812 6.19796 5.35208 7.70509C4.48604 9.21223 4.25293 11.0013 4.70387 12.68ZM11.0001 1.925C10.9007 1.925 10.8053 1.8855 10.735 1.81517C10.6646 1.74484 10.6251 1.64946 10.6251 1.55V0.473755C10.6251 0.374299 10.6646 0.278916 10.735 0.20859C10.8053 0.138264 10.9007 0.0987549 11.0001 0.0987549C11.0996 0.0987549 11.195 0.138264 11.2653 0.20859C11.3356 0.278916 11.3751 0.374299 11.3751 0.473755V1.55C11.3751 1.64946 11.3356 1.74484 11.2653 1.81517C11.195 1.8855 11.0996 1.925 11.0001 1.925ZM6.47762 3.155C6.4251 3.18103 6.36747 3.19511 6.30887 3.19625C6.23898 3.19674 6.17035 3.17769 6.11071 3.14124C6.05108 3.1048 6.00282 3.05242 5.97137 2.99C5.80346 2.67452 5.61947 2.36787 5.42012 2.07125C5.39377 2.02964 5.37587 1.98325 5.36745 1.93472C5.35903 1.88619 5.36025 1.83648 5.37105 1.78842C5.38184 1.74037 5.402 1.69491 5.43036 1.65464C5.45873 1.61438 5.49475 1.5801 5.53637 1.55375C5.61995 1.50019 5.72136 1.48195 5.81837 1.50304C5.91538 1.52413 6.00007 1.58282 6.05387 1.66625C6.26666 1.98485 6.46316 2.31402 6.64262 2.6525C6.6871 2.74107 6.69471 2.84364 6.66379 2.9378C6.63287 3.03196 6.56594 3.11005 6.47762 3.155ZM2.81762 6.62C2.74411 6.61943 2.67238 6.59726 2.61137 6.55625C2.61137 6.55625 2.41637 6.42875 1.75262 6.065C1.70953 6.04038 1.67171 6.00751 1.64132 5.96827C1.61094 5.92904 1.58858 5.8842 1.57552 5.83632C1.56246 5.78844 1.55896 5.73845 1.56522 5.68922C1.57148 5.63999 1.58737 5.59247 1.61199 5.54938C1.63662 5.50629 1.66949 5.46847 1.70872 5.43808C1.74796 5.4077 1.7928 5.38534 1.84068 5.37228C1.88856 5.35922 1.93855 5.35572 1.98778 5.36198C2.03701 5.36824 2.08453 5.38413 2.12762 5.40875C2.81762 5.78375 3.02012 5.91875 3.04262 5.93C3.11111 5.97422 3.16333 6.03955 3.19137 6.1161C3.2194 6.19265 3.22173 6.27626 3.19799 6.35425C3.17426 6.43224 3.12575 6.50037 3.05982 6.54833C2.99389 6.59628 2.91413 6.62144 2.83262 6.62H2.81762ZM0.473869 10.625H1.55012C1.64957 10.625 1.74496 10.6645 1.81528 10.7348C1.88561 10.8052 1.92512 10.9005 1.92512 11C1.92512 11.0995 1.88561 11.1948 1.81528 11.2652C1.74496 11.3355 1.64957 11.375 1.55012 11.375H0.473869C0.374413 11.375 0.27903 11.3355 0.208704 11.2652C0.138378 11.1948 0.0988693 11.0995 0.0988693 11C0.0988693 10.9005 0.138378 10.8052 0.208704 10.7348C0.27903 10.6645 0.374413 10.625 0.473869 10.625ZM1.73012 15.9463C2.41637 15.5113 2.60762 15.3838 2.61137 15.38C2.65249 15.3527 2.69859 15.3337 2.74704 15.3242C2.79549 15.3147 2.84534 15.3148 2.89374 15.3245C2.94214 15.3343 2.98815 15.3535 3.02914 15.381C3.07012 15.4085 3.10529 15.4439 3.13262 15.485C3.15995 15.5261 3.17891 15.5722 3.18843 15.6207C3.19794 15.6691 3.19782 15.719 3.18807 15.7674C3.17832 15.8158 3.15913 15.8618 3.1316 15.9028C3.10407 15.9438 3.06874 15.9789 3.02762 16.0063C3.02762 16.0063 2.83637 16.1338 2.13512 16.58C2.07404 16.6174 2.00421 16.6381 1.93262 16.64C1.85064 16.6411 1.77057 16.6153 1.70465 16.5666C1.63873 16.5178 1.5906 16.4488 1.56763 16.3701C1.54466 16.2914 1.54811 16.2074 1.57746 16.1308C1.6068 16.0543 1.66043 15.9894 1.73012 15.9463ZM5.99387 18.9725C6.0212 18.9314 6.05636 18.896 6.09735 18.8685C6.13834 18.841 6.18435 18.8218 6.23275 18.812C6.28115 18.8023 6.331 18.8022 6.37945 18.8117C6.4279 18.8212 6.474 18.8402 6.51512 18.8675C6.55624 18.8948 6.59157 18.93 6.6191 18.971C6.64664 19.012 6.66582 19.058 6.67557 19.1064C6.68532 19.1548 6.68544 19.2046 6.67593 19.2531C6.66642 19.3015 6.64745 19.3476 6.62012 19.3888C6.62012 19.3888 6.48887 19.5838 6.05387 20.27C6.01965 20.3234 5.97246 20.3672 5.91672 20.3973C5.86098 20.4275 5.7985 20.443 5.73512 20.4425C5.66435 20.4429 5.59509 20.422 5.53637 20.3825C5.49475 20.3562 5.45873 20.3219 5.43036 20.2816C5.402 20.2413 5.38184 20.1959 5.37105 20.1478C5.36025 20.0998 5.35903 20.0501 5.36745 20.0015C5.37587 19.953 5.39377 19.9066 5.42012 19.865C5.86637 19.1638 5.99387 18.9725 5.99387 18.9725ZM11.0001 20.075C11.0996 20.075 11.195 20.1145 11.2653 20.1848C11.3356 20.2552 11.3751 20.3505 11.3751 20.45V21.5263C11.3751 21.6257 11.3356 21.7211 11.2653 21.7914C11.195 21.8617 11.0996 21.9013 11.0001 21.9013C10.9007 21.9013 10.8053 21.8617 10.735 21.7914C10.6646 21.7211 10.6251 21.6257 10.6251 21.5263V20.45C10.6251 20.3505 10.6646 20.2552 10.735 20.1848C10.8053 20.1145 10.9007 20.075 11.0001 20.075ZM16.0701 18.9725C16.0701 18.995 16.2164 19.1975 16.5914 19.8875C16.6411 19.9745 16.6542 20.0777 16.6278 20.1744C16.6015 20.2711 16.5378 20.3534 16.4507 20.4031C16.3637 20.4529 16.2605 20.466 16.1638 20.4396C16.0671 20.4132 15.9848 20.3495 15.9351 20.2625C15.5601 19.5988 15.4439 19.4038 15.4439 19.4038C15.3887 19.3207 15.3687 19.2191 15.3884 19.1214C15.4081 19.0236 15.4658 18.9377 15.5489 18.8825C15.6319 18.8273 15.7335 18.8074 15.8312 18.827C15.929 18.8467 16.0149 18.9045 16.0701 18.9875V18.9725ZM19.3476 15.3575C19.6861 15.537 20.0153 15.7335 20.3339 15.9463C20.397 15.9918 20.4444 16.0559 20.4695 16.1296C20.4946 16.2033 20.4961 16.283 20.4738 16.3576C20.4516 16.4322 20.4066 16.498 20.3453 16.5459C20.2839 16.5939 20.2091 16.6215 20.1314 16.625C20.0598 16.6231 19.9899 16.6024 19.9289 16.565C19.2689 16.1413 19.0139 16.0138 19.0139 16.0138C18.928 15.9677 18.8634 15.89 18.8338 15.7972C18.8042 15.7043 18.8119 15.6036 18.8553 15.5163C18.8987 15.4291 18.9744 15.3621 19.0662 15.3297C19.1581 15.2972 19.2591 15.3018 19.3476 15.3425V15.3575ZM20.0751 11C20.0751 10.9005 20.1146 10.8052 20.185 10.7348C20.2553 10.6645 20.3507 10.625 20.4501 10.625H21.5264C21.6258 10.625 21.7212 10.6645 21.7915 10.7348C21.8619 10.8052 21.9014 10.9005 21.9014 11C21.9014 11.0995 21.8619 11.1948 21.7915 11.2652C21.7212 11.3355 21.6258 11.375 21.5264 11.375H20.4501C20.3507 11.375 20.2553 11.3355 20.185 11.2652C20.1146 11.1948 20.0751 11.0995 20.0751 11ZM20.3114 6.065C19.6064 6.44 19.3476 6.57875 19.3476 6.57875C19.2591 6.61943 19.1581 6.62404 19.0662 6.59159C18.9744 6.55915 18.8987 6.4922 18.8553 6.40494C18.8119 6.31767 18.8042 6.21695 18.8338 6.1241C18.8634 6.03124 18.928 5.95356 19.0139 5.9075C19.0139 5.9075 19.2689 5.78 19.9514 5.40875C19.9945 5.38413 20.042 5.36824 20.0912 5.36198C20.1404 5.35572 20.1904 5.35922 20.2383 5.37228C20.2862 5.38534 20.331 5.4077 20.3703 5.43808C20.4095 5.46847 20.4424 5.50629 20.467 5.54938C20.5167 5.6364 20.5298 5.73962 20.5035 5.83632C20.4771 5.93301 20.4134 6.01528 20.3264 6.065H20.3114ZM16.0926 2.98625C16.0617 3.04937 16.0137 3.10252 15.954 3.13965C15.8943 3.17678 15.8254 3.19639 15.7551 3.19625C15.6912 3.19606 15.6284 3.17953 15.5726 3.14823C15.5169 3.11693 15.4701 3.0719 15.4367 3.01742C15.4032 2.96294 15.3843 2.90082 15.3816 2.83695C15.3789 2.77308 15.3926 2.70959 15.4214 2.6525C15.4214 2.6525 15.5489 2.39375 15.9351 1.68875C15.9597 1.64566 15.9926 1.60785 16.0318 1.57746C16.0711 1.54707 16.1159 1.52471 16.1638 1.51165C16.2605 1.48528 16.3637 1.4984 16.4507 1.54813C16.5378 1.59786 16.6015 1.68012 16.6278 1.77682C16.6542 1.87352 16.6411 1.97673 16.5914 2.06375C16.2201 2.75 16.0926 2.9825 16.0926 2.98625Z" fill="#414A48"/>
</svg>
