<svg width="51" height="51" viewBox="0 0 51 51" fill="none" xmlns="http://www.w3.org/2000/svg">
<rect x="1" y="1.04785" width="49" height="49" rx="24.5" stroke="#DADBDB"/>
<g clip-path="url(#clip0_1271_14184)">
<path d="M28.3138 13.0479C27.8473 13.0662 27.4752 13.4629 27.4634 13.9512V30.4185C27.4634 33.6716 25.0007 36.2168 21.8529 36.2168C18.7051 36.2168 16.2424 33.6655 16.2424 30.4185C16.2424 27.1714 18.7051 24.6201 21.8529 24.6201C22.3549 24.6262 22.7565 24.2234 22.7624 23.7168C22.7624 23.4727 22.6738 23.2407 22.5144 23.0637C22.349 22.8867 22.1305 22.7891 21.8943 22.7891C17.7838 22.7891 14.4707 26.207 14.4707 30.4185C14.4707 34.6299 17.7838 38.0479 21.8529 38.0479C25.922 38.0479 29.2351 34.6238 29.2351 30.4185V19.1941L30.6643 20.3354C32.188 21.5562 33.7944 22.1726 35.4362 22.1726C35.95 22.1726 36.3398 21.7759 36.3457 21.2693C36.3457 21.0251 36.263 20.7932 36.0977 20.6162C35.9323 20.4392 35.7138 20.3416 35.4776 20.3416C32.0227 20.3416 29.2411 17.4668 29.2411 13.9329C29.2411 13.7009 29.1407 13.4751 28.9694 13.3042C28.804 13.1394 28.5855 13.0479 28.3552 13.0479H28.3138V13.0479Z" fill="black"/>
</g>
<defs>
<clipPath id="clip0_1271_14184">
<rect width="21.875" height="25" fill="white" transform="translate(14.4707 13.0479)"/>
</clipPath>
</defs>
</svg>
