<svg width="51" height="51" viewBox="0 0 51 51" fill="none" xmlns="http://www.w3.org/2000/svg">
<rect x="1" y="1.04785" width="49" height="49" rx="24.5" stroke="#DADBDB"/>
<path d="M38.038 15.5859C38.0383 15.2527 37.7638 14.9824 37.4248 14.9821C37.3145 14.982 37.2064 15.0111 37.1115 15.0664C36.2477 15.5725 35.3093 15.9441 34.3297 16.168C33.2599 15.1634 31.8359 14.6052 30.3565 14.6104C27.1545 14.6143 24.56 17.1653 24.5567 20.3129C24.5567 20.4755 24.5638 20.6405 24.5794 20.8066C20.8694 20.4187 17.4653 18.6059 15.1084 15.7627C14.8932 15.5046 14.5059 15.4669 14.2433 15.6784C14.1859 15.7247 14.1375 15.7808 14.1005 15.844C13.5917 16.717 13.3244 17.7057 13.325 18.7118C13.3233 19.8162 13.6482 20.8972 14.2599 21.8234C14.2359 21.8104 14.2108 21.7975 14.1868 21.7833C13.9909 21.6894 13.7591 21.7037 13.5767 21.821C13.3869 21.9422 13.2726 22.1499 13.2735 22.3724C13.2684 22.5151 13.2772 22.6579 13.2998 22.7989C13.4174 24.41 14.2294 25.8951 15.5315 26.8803C15.4179 26.9127 15.3165 26.9775 15.2403 27.0664C15.1013 27.225 15.0559 27.4431 15.1204 27.6426C15.6958 29.4061 17.1105 30.7826 18.9102 31.3304C17.0995 32.3268 15.014 32.7335 12.9534 32.4921C12.6168 32.4515 12.3105 32.6869 12.2692 33.0177C12.2406 33.2475 12.3481 33.473 12.5459 33.5984C15.0118 35.1595 17.883 35.9894 20.816 35.989C27.6581 36.0635 33.6953 31.6044 35.527 25.1236C35.943 23.7512 36.1553 22.327 36.1575 20.895C36.1575 20.75 36.1575 20.5992 36.1539 20.4461C37.4448 19.1558 38.128 17.3935 38.038 15.5859ZM35.0632 19.8487C34.9624 19.9657 34.911 20.1162 34.9194 20.2693C34.9302 20.4826 34.9302 20.6947 34.9302 20.895C34.9277 22.2116 34.7323 23.5211 34.3501 24.7831C32.7199 30.7825 27.1317 34.9113 20.816 34.7825C18.9432 34.7832 17.0894 34.4151 15.3637 33.6997C17.3921 33.4785 19.3163 32.7012 20.9166 31.4564C21.1832 31.2504 21.2295 30.8709 21.0199 30.6089C20.906 30.4664 20.733 30.3818 20.5487 30.3784C18.9514 30.3531 17.4845 29.5066 16.6833 28.148C17.2038 28.1496 17.7219 28.0789 18.2223 27.9383C18.5478 27.8464 18.7359 27.5125 18.6425 27.1925C18.5789 26.9749 18.3968 26.8106 18.1708 26.7672C16.3745 26.4141 14.9691 25.0362 14.6051 23.2714C15.1261 23.4373 15.6685 23.5297 16.2159 23.5459C16.4938 23.5663 16.7472 23.3897 16.82 23.1253C16.9028 22.8685 16.8025 22.5888 16.5743 22.4396C15.3062 21.6096 14.5467 20.2093 14.5523 18.7117C14.5519 18.2141 14.6345 17.7198 14.7968 17.2484C17.5181 20.1371 21.2796 21.8667 25.2794 22.0685C25.4734 22.0886 25.6639 22.0067 25.7804 21.8528C25.9038 21.7072 25.9508 21.5132 25.9074 21.3285C25.8262 20.9958 25.7847 20.655 25.784 20.3129C25.7864 17.8312 27.8319 15.8199 30.3565 15.8169C31.6185 15.8133 32.8246 16.329 33.6825 17.239C33.8272 17.3911 34.0417 17.4589 34.2495 17.4181C35.1204 17.2497 35.9672 16.9774 36.7711 16.6075C36.5623 17.8374 35.9647 18.9715 35.0632 19.8487Z" fill="black"/>
</svg>
